<svg xmlns="http://www.w3.org/2000/svg" id="Layer_1" enable-background="new 0 0 250 250" version="1.1" viewBox="0 0 128 128" width="20" heigt="20" xml:space="preserve"><circle cx="60" cy="69" r="50" fill="#ff5751"/><path fill="#fff" d="M60,109c-22.1,0-40-17.9-40-40s17.9-40,40-40s40,17.9,40,40S82.1,109,60,109z"/><path fill="#ff5751" d="M60,99c-16.5,0-30-13.5-30-30s13.5-30,30-30s30,13.5,30,30S76.5,99,60,99z"/><path fill="#fff" d="M60,89c-11,0-20-9-20-20s9-20,20-20s20,9,20,20S71,89,60,89z"/><path fill="#ff5751" d="M60,79c-5.5,0-10-4.5-10-10s4.5-10,10-10s10,4.5,10,10S65.5,79,60,79z"/><circle cx="60" cy="69" r="50" fill="none" stroke="#242c88" stroke-linecap="round" stroke-linejoin="round" stroke-miterlimit="10" stroke-width="2"/><path fill="none" stroke="#242c88" stroke-linecap="round" stroke-linejoin="round" stroke-miterlimit="10" stroke-width="8" d="M105,69c0,24.9-20.1,45-45,45" opacity=".2"/><path fill="none" stroke="#fff" stroke-linecap="round" stroke-linejoin="round" stroke-miterlimit="10" stroke-width="8" d="M15,69c0-24.9,20.1-45,45-45" opacity=".2"/><path fill="none" stroke="#242c88" stroke-linecap="round" stroke-linejoin="round" stroke-miterlimit="10" stroke-width="2" d="M60,109c-22.1,0-40-17.9-40-40s17.9-40,40-40s40,17.9,40,40S82.1,109,60,109z"/><path fill="none" stroke="#242c88" stroke-linecap="round" stroke-linejoin="round" stroke-miterlimit="10" stroke-width="2" d="M60,99c-16.5,0-30-13.5-30-30s13.5-30,30-30s30,13.5,30,30S76.5,99,60,99z"/><path fill="none" stroke="#242c88" stroke-linecap="round" stroke-linejoin="round" stroke-miterlimit="10" stroke-width="2" d="M60,89c-11,0-20-9-20-20s9-20,20-20s20,9,20,20S71,89,60,89z"/><path fill="none" stroke="#242c88" stroke-linecap="round" stroke-linejoin="round" stroke-miterlimit="10" stroke-width="2" d="M60,79c-5.5,0-10-4.5-10-10s4.5-10,10-10s10,4.5,10,10S65.5,79,60,79z"/><line x1="60" x2="105" y1="69" y2="24" fill="none" stroke="#242c88" stroke-linecap="round" stroke-linejoin="round" stroke-miterlimit="10" stroke-width="4"/><polygon fill="#83d689" points="105 36 94.1 34.9 93 24 105.7 11.3 106.8 22.2 117.7 23.3"/><polygon fill="none" stroke="#242c88" stroke-linecap="round" stroke-linejoin="round" stroke-miterlimit="10" stroke-width="2" points="105 36 94.1 34.9 93 24 105.7 11.3 106.8 22.2 117.7 23.3"/><polygon fill="#242c88" points="105 36 94.1 34.9 106.8 22.2 117.7 23.3" opacity=".2"/><line x1="81.8" x2="96.2" y1="56.1" y2="41.6" fill="none" stroke="#fff" stroke-linecap="round" stroke-linejoin="round" stroke-miterlimit="10" stroke-width="2"/><line x1="93" x2="102.3" y1="19" y2="9.7" fill="none" stroke="#242c88" stroke-linecap="round" stroke-linejoin="round" stroke-miterlimit="10" stroke-width="2"/><line x1="59.3" x2="68.7" y1="63.7" y2="54.3" fill="none" stroke="#242c88" stroke-linecap="round" stroke-linejoin="round" stroke-miterlimit="10" stroke-width="2"/><polyline fill="none" stroke="#242c88" stroke-linecap="round" stroke-linejoin="round" stroke-miterlimit="10" stroke-width="2" points="99.2 17.8 99.2 29.8 96.3 20.7"/><line x1="103.5" x2="113.4" y1="26" y2="27.6" fill="none" stroke="#242c88" stroke-linecap="round" stroke-linejoin="round" stroke-miterlimit="10" stroke-width="2"/><line x1="94.1" x2="106.8" y1="34.9" y2="22.2" fill="none" stroke="#242c88" stroke-linecap="round" stroke-linejoin="round" stroke-miterlimit="10" stroke-width="2"/></svg>